# xmcd
#
# Track frame offsets:
#	150
#	11175
#	24640
#	35545
#	52155
#	68596
#	84211
#	97540
#	112938
#	135685
#	152325
#	174207
#	188383
#	206833
#	225346
#	243010
#	258421
#	282793
#	298549
#
# Disc length: 4135 seconds
#
# Revision: 0
# Processed by: cddbd v1.5.1PL0 Copyright (c) Steve Scherf et al.
# Submitted via: EasyCDDAExtractor 8.2.3.1
#
DISCID=e6102513
DTITLE=Various Artist - Keeping Living Music Alive
DYEAR=2005
DGENRE=Blues
TTITLE0=Percy Strother - Blow Wind Blow
TTITLE1=Billy Jones - Ain't No Secret
TTITLE2=Big George Jackson - Friday Evening
TTITLE3=Byther Smith - Cloes To You Baby
TTITLE4=Teresa James - Come Up And See Me Sometime
TTITLE5=Ernie Payne - Coercion Street
TTITLE6=Sunset Travelers - I Got A Sure Thing
TTITLE7=Billy Jones - Ain't Good Lookin'
TTITLE8=Doug MacLeod - The Devil Is Beating His Wife
TTITLE9=Mike Andersen - Same Damn Time
TTITLE10=Boo Boo Davis - The Snake
TTITLE11=Roscoe Chenier - Rainin' In My Heart
TTITLE12=Teresa James - Just When I Thought
TTITLE13=Ernie Payne - Curse Of Hamm
TTITLE14=Boo Boo Davis - Leave It Alone
TTITLE15=Big George Jackson - You Ain't All That
TTITLE16=Mike Andersen - Lessons
TTITLE17=Doug MacLeod - North County Woman
TTITLE18=Erskine Oglesby - Two Franc Blues
EXTD=
EXTT0=
EXTT1=
EXTT2=
EXTT3=
EXTT4=
EXTT5=
EXTT6=
EXTT7=
EXTT8=
EXTT9=
EXTT10=
EXTT11=
EXTT12=
EXTT13=
EXTT14=
EXTT15=
EXTT16=
EXTT17=
EXTT18=
PLAYORDER=
